<svg width="12" height="12" viewBox="0 0 12 12" fill="none" xmlns="http://www.w3.org/2000/svg">
<circle cx="6" cy="6" r="6" fill="#005BB9"/>
<path d="M5.25 5.72266H5.82812C6.11979 5.72005 6.35026 5.64453 6.51953 5.49609C6.69141 5.34766 6.77734 5.13281 6.77734 4.85156C6.77734 4.58073 6.70573 4.37109 6.5625 4.22266C6.42188 4.07161 6.20573 3.99609 5.91406 3.99609C5.65885 3.99609 5.44922 4.07031 5.28516 4.21875C5.12109 4.36458 5.03906 4.55599 5.03906 4.79297H4.08984C4.08984 4.5013 4.16667 4.23568 4.32031 3.99609C4.47656 3.75651 4.69271 3.57031 4.96875 3.4375C5.2474 3.30208 5.55859 3.23438 5.90234 3.23438C6.47005 3.23438 6.91536 3.3776 7.23828 3.66406C7.5638 3.94792 7.72656 4.34375 7.72656 4.85156C7.72656 5.10677 7.64453 5.34766 7.48047 5.57422C7.31901 5.79818 7.10938 5.96745 6.85156 6.08203C7.16406 6.1888 7.40104 6.35677 7.5625 6.58594C7.72656 6.8151 7.80859 7.08854 7.80859 7.40625C7.80859 7.91667 7.63281 8.32292 7.28125 8.625C6.93229 8.92708 6.47266 9.07812 5.90234 9.07812C5.35547 9.07812 4.90755 8.93229 4.55859 8.64062C4.20964 8.34896 4.03516 7.96094 4.03516 7.47656H4.98438C4.98438 7.72656 5.06771 7.92969 5.23438 8.08594C5.40365 8.24219 5.63021 8.32031 5.91406 8.32031C6.20833 8.32031 6.4401 8.24219 6.60938 8.08594C6.77865 7.92969 6.86328 7.70312 6.86328 7.40625C6.86328 7.10677 6.77474 6.8763 6.59766 6.71484C6.42057 6.55339 6.15755 6.47266 5.80859 6.47266H5.25V5.72266Z" fill="white"/>
</svg>
