<svg width="24" height="24" viewBox="0 0 24 24" fill="none" xmlns="http://www.w3.org/2000/svg">
<path d="M9.12127 17.9395C7.45037 17.9395 6.091 19.2989 6.091 20.9698C6.091 22.6407 7.45037 24.0001 9.12127 24.0001C10.7922 24.0001 12.1515 22.6407 12.1515 20.9698C12.1515 19.2989 10.7921 17.9395 9.12127 17.9395ZM9.12127 22.1819C8.45279 22.1819 7.90918 21.6383 7.90918 20.9698C7.90918 20.3013 8.45279 19.7577 9.12127 19.7577C9.78943 19.7577 10.3334 20.3013 10.3334 20.9698C10.3334 21.6382 9.78975 22.1819 9.12127 22.1819Z" fill="#0F2438" stroke="white" stroke-width="0.3"/>
<path d="M18.0911 17.9395C16.4202 17.9395 15.0608 19.2989 15.0608 20.9698C15.0608 22.6407 16.4202 24.0001 18.0911 24.0001C19.762 24.0001 21.1213 22.6407 21.1213 20.9698C21.1213 19.2989 19.762 17.9395 18.0911 17.9395ZM18.0911 22.1819C17.4226 22.1819 16.879 21.6383 16.879 20.9698C16.879 20.3013 17.4226 19.7577 18.0911 19.7577C18.7595 19.7577 19.3031 20.3013 19.3031 20.9698C19.3031 21.6382 18.7595 22.1819 18.0911 22.1819Z" fill="#0F2438" stroke="white" stroke-width="0.3"/>
<path d="M23.3478 5.91912C23.1751 5.70213 22.9133 5.57581 22.6363 5.57581H6.71843L5.89207 1.3995C5.81965 1.03373 5.53118 0.749201 5.1642 0.681935L1.52789 0.0152816C1.03308 -0.0759368 0.560343 0.251671 0.469734 0.745591C0.379125 1.23951 0.706077 1.71313 1.20004 1.80374L4.22848 2.35888L6.89632 15.8432C6.98055 16.269 7.35419 16.5759 7.78811 16.5759H20.5152C20.9385 16.5759 21.3055 16.2841 21.4009 15.8711L23.5221 6.68941C23.5845 6.41941 23.5203 6.13577 23.3478 5.91912ZM19.7921 14.7578H8.53473L7.0781 7.39427H21.493L19.7921 14.7578Z" fill="#0F2438" stroke="white" stroke-width="0.3"/>
</svg>
