<svg width="12" height="12" viewBox="0 0 12 12" fill="none" xmlns="http://www.w3.org/2000/svg">
<circle cx="6" cy="6" r="6" fill="#005BB9"/>
<path d="M7.97656 9H4.15234V8.34766L6.04688 6.28125C6.32031 5.97656 6.51432 5.72266 6.62891 5.51953C6.74609 5.3138 6.80469 5.10807 6.80469 4.90234C6.80469 4.63151 6.72786 4.41276 6.57422 4.24609C6.42318 4.07943 6.21875 3.99609 5.96094 3.99609C5.65365 3.99609 5.41536 4.08984 5.24609 4.27734C5.07682 4.46484 4.99219 4.72135 4.99219 5.04688H4.04297C4.04297 4.70052 4.12109 4.38932 4.27734 4.11328C4.4362 3.83464 4.66146 3.61849 4.95312 3.46484C5.2474 3.3112 5.58594 3.23438 5.96875 3.23438C6.52083 3.23438 6.95573 3.3737 7.27344 3.65234C7.59375 3.92839 7.75391 4.3112 7.75391 4.80078C7.75391 5.08464 7.67318 5.38281 7.51172 5.69531C7.35286 6.00521 7.09115 6.35807 6.72656 6.75391L5.33594 8.24219H7.97656V9Z" fill="white"/>
</svg>
